<?xml version="1.0" encoding="UTF-8" standalone="no"?>
<svg
   class="feather feather-edit-2"
   fill="none"
   height="24"
   stroke="currentColor"
   stroke-linecap="round"
   stroke-linejoin="round"
   stroke-width="2"
   viewBox="0 0 24 24"
   width="24"
   version="1.1"
   id="svg1"
   sodipodi:docname="plus.svg"
   inkscape:version="1.3 (0e150ed6c4, 2023-07-21)"
   xml:space="preserve"
   xmlns:inkscape="http://www.inkscape.org/namespaces/inkscape"
   xmlns:sodipodi="http://sodipodi.sourceforge.net/DTD/sodipodi-0.dtd"
   xmlns="http://www.w3.org/2000/svg"
   xmlns:svg="http://www.w3.org/2000/svg"><defs
     id="defs1" /><sodipodi:namedview
     id="namedview1"
     pagecolor="#ffffff"
     bordercolor="#999999"
     borderopacity="1"
     inkscape:showpageshadow="0"
     inkscape:pageopacity="0"
     inkscape:pagecheckerboard="0"
     inkscape:deskcolor="#d1d1d1"
     inkscape:zoom="33.875"
     inkscape:cx="12"
     inkscape:cy="12"
     inkscape:window-width="1920"
     inkscape:window-height="1009"
     inkscape:window-x="-8"
     inkscape:window-y="-8"
     inkscape:window-maximized="1"
     inkscape:current-layer="svg1" /><path
     d="m 19.780987,13.350999 h -6.496465 v 6.754697 c 0,0.74291 -0.582167,1.350691 -1.299282,1.350691 -0.717234,0 -1.299282,-0.610867 -1.299282,-1.350691 V 13.350999 H 4.1894336 c -0.7171741,0 -1.2992811,-0.604696 -1.2992811,-1.351307 0,-0.742912 0.5821661,-1.350692 1.2992811,-1.350692 H 10.685958 V 3.8943047 c 0,-0.7429115 0.582167,-1.3513089 1.299282,-1.3513089 0.717175,0 1.299282,0.6108657 1.299282,1.3513089 V 10.649 h 6.496465 c 0.717234,0 1.299282,0.610865 1.299282,1.350692 0,0.743528 -0.582167,1.351307 -1.299282,1.351307 z"
     id="path1"
     style="display:inline;fill:#979797;stroke:none;stroke-width:0.363074;stroke-dasharray:none;stroke-opacity:1"
     sodipodi:nodetypes="scssscssscssscsss" /></svg>
